<?xml version="1.0" encoding="UTF-8"?><svg xmlns="http://www.w3.org/2000/svg" viewBox="0 0 49.84 46.2"><defs><style>.g{fill:#78afb4;}.h{fill:#9f9173;}.i{fill:#ceb656;}</style></defs><g id="a"/><g id="b"><g id="c"><g><path id="d" class="g" d="M36.27,6.41h0C32.74,.29,24.91-1.82,18.78,1.71h-.02c-6.13,3.54-8.23,11.38-4.7,17.5h0l8.16,14.15,1.58-2.82-7.34-12.71-.3,.17,.3-.18h0c-2.77-4.8-1.13-10.93,3.66-13.7h.01l-.74-1.29,.74,1.29c4.79-2.77,10.93-1.13,13.7,3.66v.02h0l1.51-.87-1.51,.87c.88,1.52,1.34,3.25,1.35,5.01,0,1.78-.47,3.53-1.37,5.07,0,0,1.86,.02,3.1,.02,1.61-3.72,1.36-7.98-.67-11.48h0Z"/><path id="e" class="h" d="M4.13,28.3h0c1.79-3.11,5.11-5.03,8.7-5.02h0s-.8-1.42-1.52-2.69c-4.01,.47-7.57,2.82-9.59,6.32h0c-3.54,6.12-1.45,13.96,4.68,17.5h.01l.51-.87-.51,.88c1.94,1.13,4.15,1.72,6.4,1.72h0c4.58,0,8.82-2.44,11.11-6.41l-1.49-.86,1.49,.86,8.12-14.11h-3.19l-7.34,12.72h0c-2.77,4.8-8.9,6.45-13.7,3.68h0c-4.8-2.77-6.45-8.9-3.68-13.7v-.02"/><path id="f" class="i" d="M49.84,33.38c0-7.06-5.71-12.79-12.76-12.82H20.7l1.58,2.78h14.74c5.54,0,10.04,4.5,10.03,10.04,0,5.54-4.5,10.04-10.04,10.03-3.6,0-6.92-1.93-8.71-5.05,0,0-.79,1.34-1.54,2.71,4.25,5.66,12.28,6.81,17.95,2.56,3.23-2.42,5.12-6.22,5.12-10.25h0Z"/></g></g></g></svg>