<svg xmlns="http://www.w3.org/2000/svg" width="265.853" height="46.195" viewBox="0 0 265.853 46.195">
  <g id="Group_134" data-name="Group 134" transform="translate(-2181.332 -980)">
    <path id="Path_1" data-name="Path 1" d="M239.671,337.213h0a12.809,12.809,0,0,0-17.51-4.691h0a12.808,12.808,0,0,0-4.689,17.507h0l8.158,14.132,1.583-2.816-7.335-12.707-.3.175.3-.176h0a10.03,10.03,0,0,1,3.672-13.711l-.741-1.286.744,1.285a10.028,10.028,0,0,1,13.71,3.675h0l1.506-.869-1.506.87a10,10,0,0,1,1.345,5.006,10.129,10.129,0,0,1-1.366,5.068s1.86.022,3.095.022a12.8,12.8,0,0,0-.669-11.485Z" transform="translate(1977.931 649.199)" fill="#fff"/>
    <path id="Path_2" data-name="Path 2" d="M196.545,377.4h0a10.028,10.028,0,0,1,8.7-5.021h0s-.8-1.422-1.522-2.69a12.8,12.8,0,0,0-9.588,6.321h0a12.808,12.808,0,0,0,4.691,17.507l.507-.876-.507.877a12.762,12.762,0,0,0,6.4,1.718h0a12.819,12.819,0,0,0,11.107-6.409l-1.487-.86,1.487.859,8.124-14.112-3.19.008-7.34,12.715h0a10.031,10.031,0,0,1-13.71,3.675h0a10.029,10.029,0,0,1-3.675-13.712" transform="translate(1988.915 630.894)" fill="#fff"/>
    <path id="Path_3" data-name="Path 3" d="M260.653,382.465a12.819,12.819,0,0,0-12.764-12.818c-.019,0-.037,0-.054,0H231.517l1.58,2.779h14.739v0a10.038,10.038,0,1,1-8.716,15.023s-.786,1.341-1.538,2.709a12.818,12.818,0,0,0,23.07-7.692Z" transform="translate(1970.512 630.915)" fill="#fff"/>
    <g id="Group_2" data-name="Group 2" transform="translate(2243.617 998.445)">
      <path id="Path_4" data-name="Path 4" d="M110.091,447.322a5.1,5.1,0,0,1-4.007-1.544l.854-.854a4.017,4.017,0,0,0,3.186,1.281c1.708,0,2.759-.8,2.759-2.168a1.883,1.883,0,0,0-.558-1.461,2.52,2.52,0,0,0-1.527-.558l-1.362-.213a4.245,4.245,0,0,1-2.151-.887,2.763,2.763,0,0,1-.887-2.184c0-1.987,1.429-3.3,3.744-3.3a4.694,4.694,0,0,1,3.481,1.281l-.8.8a3.683,3.683,0,0,0-2.726-1,2.16,2.16,0,0,0-2.463,2.167,1.687,1.687,0,0,0,.526,1.347,3.363,3.363,0,0,0,1.576.641l1.281.2a3.76,3.76,0,0,1,2.134.821,2.927,2.927,0,0,1,.986,2.315C114.131,446.057,112.522,447.322,110.091,447.322Z" transform="translate(-106.085 -435.433)" fill="#fff"/>
      <path id="Path_5" data-name="Path 5" d="M135.339,447.31v-5.337h-5.55v5.337h-1.248V435.619h1.248v5.238h5.55v-5.238h1.248V447.31Z" transform="translate(-116.654 -435.521)" fill="#fff"/>
      <path id="Path_6" data-name="Path 6" d="M157.941,447.31l-.936-2.643H151.9l-.936,2.643h-1.33l4.3-11.691h1.051l4.285,11.691Zm-3.464-9.9-2.2,6.174h4.368Z" transform="translate(-126.581 -435.521)" fill="#fff"/>
      <path id="Path_7" data-name="Path 7" d="M180.449,447.31l-2.66-5.189h-2.808v5.189h-1.248V435.619h4.483a3.162,3.162,0,0,1,3.465,3.251,3.034,3.034,0,0,1-2.546,3.137l2.775,5.3ZM178.1,436.736h-3.12v4.285h3.12a2.15,2.15,0,1,0,0-4.285Z" transform="translate(-137.925 -435.521)" fill="#fff"/>
      <path id="Path_8" data-name="Path 8" d="M196.407,447.31V435.619h7.258v1.117h-6.01v4.121h5.123v1.116h-5.123v4.22h6.01v1.116Z" transform="translate(-148.597 -435.521)" fill="#fff"/>
      <path id="Path_9" data-name="Path 9" d="M224.305,446.226a4.088,4.088,0,0,1-2.956,1.084h-4.007V435.619h4.007a4.088,4.088,0,0,1,2.956,1.084c1.215,1.215,1.149,3.006,1.149,4.631S225.52,445.011,224.305,446.226Zm-.87-8.637a3.043,3.043,0,0,0-2.3-.854h-2.545v9.458h2.545a3.043,3.043,0,0,0,2.3-.854c.8-.837.772-2.578.772-4.006S224.24,438.427,223.435,437.59Z" transform="translate(-158.451 -435.521)" fill="#fff"/>
      <path id="Path_10" data-name="Path 10" d="M254.944,442.5h-3.1v4.811h-1.248V435.619h4.351a3.444,3.444,0,1,1,0,6.88Zm-.115-5.763h-2.989v4.647h2.989a2.328,2.328,0,1,0,0-4.647Z" transform="translate(-174.101 -435.521)" fill="#fff"/>
      <path id="Path_11" data-name="Path 11" d="M272.459,447.31V435.619h7.258v1.117h-6.01v4.121h5.123v1.116h-5.123v4.22h6.01v1.116Z" transform="translate(-184.392 -435.521)" fill="#fff"/>
      <path id="Path_12" data-name="Path 12" d="M300.111,447.31l-2.659-5.189h-2.808v5.189h-1.248V435.619h4.483a3.163,3.163,0,0,1,3.465,3.251,3.034,3.034,0,0,1-2.546,3.137l2.775,5.3Zm-2.348-10.574h-3.12v4.285h3.12a2.15,2.15,0,1,0,0-4.285Z" transform="translate(-194.246 -435.521)" fill="#fff"/>
      <path id="Path_13" data-name="Path 13" d="M317.316,436.736v4.3h5.123v1.117h-5.123v5.156h-1.248V435.619h7.258v1.117Z" transform="translate(-204.918 -435.521)" fill="#fff"/>
      <path id="Path_14" data-name="Path 14" d="M342,446.106a4.281,4.281,0,0,1-5.977,0c-1.1-1.1-1.1-2.25-1.1-4.73s0-3.628,1.1-4.728a4.282,4.282,0,0,1,5.977,0c1.1,1.1,1.1,2.25,1.1,4.728S343.1,445.007,342,446.106Zm-.969-8.72a2.854,2.854,0,0,0-4.039,0c-.739.756-.821,1.544-.821,3.99s.082,3.235.821,3.99a2.853,2.853,0,0,0,4.039,0c.739-.755.821-1.543.821-3.99S341.773,438.143,341.034,437.387Z" transform="translate(-213.794 -435.433)" fill="#fff"/>
      <path id="Path_15" data-name="Path 15" d="M364.966,447.31l-2.66-5.189H359.5v5.189H358.25V435.619h4.483a3.162,3.162,0,0,1,3.464,3.251,3.034,3.034,0,0,1-2.544,3.137l2.775,5.3Zm-2.348-10.574H359.5v4.285h3.12a2.15,2.15,0,1,0,0-4.285Z" transform="translate(-224.772 -435.521)" fill="#fff"/>
      <path id="Path_16" data-name="Path 16" d="M389.693,447.31v-8.883l-3.2,7.044h-1.067l-3.252-7.044v8.883h-1.248V435.619h1.248l3.81,8.292,3.712-8.292h1.248V447.31Z" transform="translate(-235.444 -435.521)" fill="#fff"/>
      <path id="Path_17" data-name="Path 17" d="M414.045,447.31l-.936-2.643H408l-.936,2.643h-1.331l4.3-11.691h1.051l4.286,11.691Zm-3.464-9.9-2.2,6.174h4.368Z" transform="translate(-247.122 -435.521)" fill="#fff"/>
      <path id="Path_18" data-name="Path 18" d="M437.292,447.31l-6.206-9.376v9.376h-1.248V435.619h1.181l6.207,9.344v-9.344h1.248V447.31Z" transform="translate(-258.466 -435.521)" fill="#fff"/>
      <path id="Path_19" data-name="Path 19" d="M458.118,447.322a4.17,4.17,0,0,1-2.989-1.215c-1.1-1.1-1.1-2.25-1.1-4.73s0-3.628,1.1-4.728a4.168,4.168,0,0,1,2.989-1.215,3.943,3.943,0,0,1,4.056,3.481h-1.281a2.76,2.76,0,0,0-2.775-2.365,2.814,2.814,0,0,0-2.019.822c-.739.755-.822,1.559-.822,4.006s.083,3.252.822,4.007a2.864,2.864,0,0,0,4.827-1.544h1.248A3.944,3.944,0,0,1,458.118,447.322Z" transform="translate(-269.852 -435.433)" fill="#fff"/>
      <path id="Path_20" data-name="Path 20" d="M476.951,447.31V435.619h7.258v1.117H478.2v4.121h5.123v1.116H478.2v4.22h6.009v1.116Z" transform="translate(-280.641 -435.521)" fill="#fff"/>
    </g>
  </g>
</svg>
