<svg xmlns="http://www.w3.org/2000/svg" width="660.76" height="445.82" viewBox="0 0 660.76 445.82">
  <g id="Group_195" data-name="Group 195" transform="translate(-232.934 -251.925)">
    <g id="Group_167" data-name="Group 167" transform="translate(232.934 508.621)">
      <circle id="Ellipse_166" data-name="Ellipse 166" cx="6.244" cy="6.244" r="6.244" fill="#ceb656"/>
      <circle id="Ellipse_167" data-name="Ellipse 167" cx="6.244" cy="6.244" r="6.244" transform="translate(0 33.635)" fill="#ceb656"/>
      <circle id="Ellipse_168" data-name="Ellipse 168" cx="6.244" cy="6.244" r="6.244" transform="translate(0 71.501)" fill="#ceb656"/>
    </g>
    <g id="Group_168" data-name="Group 168" transform="translate(256.944 548.5)">
      <circle id="Ellipse_169" data-name="Ellipse 169" cx="6.244" cy="6.244" r="6.244" transform="translate(0 0)" fill="#ceb656"/>
      <circle id="Ellipse_170" data-name="Ellipse 170" cx="6.244" cy="6.244" r="6.244" transform="translate(0 26.989)" fill="#ceb656"/>
      <circle id="Ellipse_171" data-name="Ellipse 171" cx="6.244" cy="6.244" r="6.244" transform="translate(0 81.773)" fill="#ceb656"/>
      <circle id="Ellipse_172" data-name="Ellipse 172" cx="6.244" cy="6.244" r="6.244" transform="translate(0 116.617)" fill="#ceb656"/>
    </g>
    <g id="Group_169" data-name="Group 169" transform="translate(280.954 527.352)">
      <circle id="Ellipse_173" data-name="Ellipse 173" cx="6.244" cy="6.244" r="6.244" transform="translate(0 0)" fill="#ceb656"/>
      <circle id="Ellipse_174" data-name="Ellipse 174" cx="6.244" cy="6.244" r="6.244" transform="translate(0 48.137)" fill="#ceb656"/>
      <circle id="Ellipse_175" data-name="Ellipse 175" cx="6.244" cy="6.244" r="6.244" transform="translate(0 96.274)" fill="#ceb656"/>
    </g>
    <g id="Group_170" data-name="Group 170" transform="translate(304.964 509.383)">
      <circle id="Ellipse_176" data-name="Ellipse 176" cx="6.244" cy="6.244" r="6.244" transform="translate(0 0)" fill="#ceb656"/>
      <circle id="Ellipse_177" data-name="Ellipse 177" cx="6.244" cy="6.244" r="6.244" transform="translate(0 41.534)" fill="#ceb656"/>
      <circle id="Ellipse_178" data-name="Ellipse 178" cx="6.244" cy="6.244" r="6.244" transform="translate(0 82.219)" fill="#ceb656"/>
    </g>
    <g id="Group_171" data-name="Group 171" transform="translate(761.155 466.728)">
      <circle id="Ellipse_179" data-name="Ellipse 179" cx="6.244" cy="6.244" r="6.244" fill="#ceb656"/>
      <circle id="Ellipse_180" data-name="Ellipse 180" cx="6.244" cy="6.244" r="6.244" transform="translate(0 43.585)" fill="#ceb656"/>
      <circle id="Ellipse_181" data-name="Ellipse 181" cx="6.244" cy="6.244" r="6.244" transform="translate(0 71.702)" fill="#ceb656"/>
    </g>
    <g id="Group_172" data-name="Group 172" transform="translate(881.206 374.482)">
      <circle id="Ellipse_182" data-name="Ellipse 182" cx="6.244" cy="6.244" r="6.244" transform="translate(0 0)" fill="#ceb656"/>
      <circle id="Ellipse_183" data-name="Ellipse 183" cx="6.244" cy="6.244" r="6.244" transform="translate(0 108.157)" fill="#ceb656"/>
      <circle id="Ellipse_184" data-name="Ellipse 184" cx="6.244" cy="6.244" r="6.244" transform="translate(0 197.046)" fill="#ceb656"/>
      <circle id="Ellipse_185" data-name="Ellipse 185" cx="6.244" cy="6.244" r="6.244" transform="translate(0 233.3)" fill="#ceb656"/>
    </g>
    <g id="Group_173" data-name="Group 173" transform="translate(857.196 251.925)">
      <circle id="Ellipse_186" data-name="Ellipse 186" cx="6.244" cy="6.244" r="6.244" fill="#ceb656"/>
      <circle id="Ellipse_187" data-name="Ellipse 187" cx="6.244" cy="6.244" r="6.244" transform="translate(0 144.107)" fill="#ceb656"/>
      <circle id="Ellipse_188" data-name="Ellipse 188" cx="6.244" cy="6.244" r="6.244" transform="translate(0 210.17)" fill="#ceb656"/>
      <circle id="Ellipse_189" data-name="Ellipse 189" cx="6.244" cy="6.244" r="6.244" transform="translate(0 292.748)" fill="#ceb656"/>
    </g>
    <g id="Group_174" data-name="Group 174" transform="translate(833.186 330.878)">
      <circle id="Ellipse_190" data-name="Ellipse 190" cx="6.244" cy="6.244" r="6.244" fill="#ceb656"/>
      <circle id="Ellipse_191" data-name="Ellipse 191" cx="6.244" cy="6.244" r="6.244" transform="translate(0 148.337)" fill="#ceb656"/>
    </g>
    <g id="Group_175" data-name="Group 175" transform="translate(809.176 395.026)">
      <circle id="Ellipse_192" data-name="Ellipse 192" cx="6.244" cy="6.244" r="6.244" fill="#ceb656"/>
      <circle id="Ellipse_193" data-name="Ellipse 193" cx="6.244" cy="6.244" r="6.244" transform="translate(0 87.613)" fill="#ceb656"/>
      <circle id="Ellipse_194" data-name="Ellipse 194" cx="6.244" cy="6.244" r="6.244" transform="translate(0 124.874)" fill="#ceb656"/>
    </g>
    <g id="Group_176" data-name="Group 176" transform="translate(785.166 437.053)">
      <circle id="Ellipse_195" data-name="Ellipse 195" cx="6.244" cy="6.244" r="6.244" fill="#ceb656"/>
      <circle id="Ellipse_196" data-name="Ellipse 196" cx="6.244" cy="6.244" r="6.244" transform="translate(0 124.539)" fill="#ceb656"/>
      <circle id="Ellipse_197" data-name="Ellipse 197" cx="6.244" cy="6.244" r="6.244" transform="translate(0 194.227)" fill="#ceb656"/>
    </g>
    <g id="Group_177" data-name="Group 177" transform="translate(737.145 380.725)">
      <circle id="Ellipse_198" data-name="Ellipse 198" cx="6.244" cy="6.244" r="6.244" transform="translate(0 0)" fill="#ceb656"/>
      <circle id="Ellipse_199" data-name="Ellipse 199" cx="6.244" cy="6.244" r="6.244" transform="translate(0 73.515)" fill="#ceb656"/>
      <circle id="Ellipse_200" data-name="Ellipse 200" cx="6.244" cy="6.244" r="6.244" transform="translate(0 180.866)" fill="#ceb656"/>
      <circle id="Ellipse_201" data-name="Ellipse 201" cx="6.244" cy="6.244" r="6.244" transform="translate(0 234.844)" fill="#ceb656"/>
    </g>
    <g id="Group_178" data-name="Group 178" transform="translate(713.135 311.142)">
      <circle id="Ellipse_202" data-name="Ellipse 202" cx="6.244" cy="6.244" r="6.244" transform="translate(0 0)" fill="#ceb656"/>
      <circle id="Ellipse_203" data-name="Ellipse 203" cx="6.244" cy="6.244" r="6.244" transform="translate(0 77.64)" fill="#ceb656"/>
      <circle id="Ellipse_204" data-name="Ellipse 204" cx="6.244" cy="6.244" r="6.244" transform="translate(0 196.271)" fill="#ceb656"/>
      <circle id="Ellipse_205" data-name="Ellipse 205" cx="6.244" cy="6.244" r="6.244" transform="translate(0 230.108)" fill="#ceb656"/>
    </g>
    <g id="Group_179" data-name="Group 179" transform="translate(689.125 370.051)">
      <circle id="Ellipse_206" data-name="Ellipse 206" cx="6.244" cy="6.244" r="6.244" fill="#ceb656"/>
      <circle id="Ellipse_207" data-name="Ellipse 207" cx="6.244" cy="6.244" r="6.244" transform="translate(0 38.469)" fill="#ceb656"/>
      <circle id="Ellipse_208" data-name="Ellipse 208" cx="6.244" cy="6.244" r="6.244" transform="translate(0 100.101)" fill="#ceb656"/>
    </g>
    <g id="Group_180" data-name="Group 180" transform="translate(665.115 444.371)">
      <circle id="Ellipse_209" data-name="Ellipse 209" cx="6.244" cy="6.244" r="6.244" transform="translate(0 0)" fill="#ceb656"/>
      <circle id="Ellipse_210" data-name="Ellipse 210" cx="6.244" cy="6.244" r="6.244" transform="translate(0 164.955)" fill="#ceb656"/>
      <circle id="Ellipse_211" data-name="Ellipse 211" cx="6.244" cy="6.244" r="6.244" transform="translate(0 211.951)" fill="#ceb656"/>
    </g>
    <g id="Group_181" data-name="Group 181" transform="translate(641.105 380.725)">
      <circle id="Ellipse_212" data-name="Ellipse 212" cx="6.244" cy="6.244" r="6.244" transform="translate(0 0)" fill="#ceb656"/>
      <circle id="Ellipse_213" data-name="Ellipse 213" cx="6.244" cy="6.244" r="6.244" transform="translate(0 57.402)" fill="#ceb656"/>
      <circle id="Ellipse_214" data-name="Ellipse 214" cx="6.244" cy="6.244" r="6.244" transform="translate(0 79.758)" fill="#ceb656"/>
      <circle id="Ellipse_215" data-name="Ellipse 215" cx="6.244" cy="6.244" r="6.244" transform="translate(0 148.439)" fill="#ceb656"/>
    </g>
    <g id="Group_182" data-name="Group 182" transform="translate(617.095 408.52)">
      <circle id="Ellipse_216" data-name="Ellipse 216" cx="6.244" cy="6.244" r="6.244" fill="#ceb656"/>
      <circle id="Ellipse_217" data-name="Ellipse 217" cx="6.244" cy="6.244" r="6.244" transform="translate(0 140.584)" fill="#ceb656"/>
      <circle id="Ellipse_218" data-name="Ellipse 218" cx="6.244" cy="6.244" r="6.244" transform="translate(0 207.05)" fill="#ceb656"/>
    </g>
    <g id="Group_183" data-name="Group 183" transform="translate(593.085 437.053)">
      <circle id="Ellipse_219" data-name="Ellipse 219" cx="6.244" cy="6.244" r="6.244" transform="translate(0 29.674)" fill="#ceb656"/>
      <circle id="Ellipse_220" data-name="Ellipse 220" cx="6.244" cy="6.244" r="6.244" fill="#ceb656"/>
      <circle id="Ellipse_221" data-name="Ellipse 221" cx="6.244" cy="6.244" r="6.244" transform="translate(0 60.893)" fill="#ceb656"/>
    </g>
    <g id="Group_184" data-name="Group 184" transform="translate(569.075 408.52)">
      <circle id="Ellipse_222" data-name="Ellipse 222" cx="6.244" cy="6.244" r="6.244" fill="#ceb656"/>
      <circle id="Ellipse_223" data-name="Ellipse 223" cx="6.244" cy="6.244" r="6.244" transform="translate(0 142.397)" fill="#ceb656"/>
    </g>
    <g id="Group_185" data-name="Group 185" transform="translate(545.065 380.133)">
      <circle id="Ellipse_224" data-name="Ellipse 224" cx="6.244" cy="6.244" r="6.244" transform="translate(0 53.765)" fill="#ceb656"/>
      <circle id="Ellipse_225" data-name="Ellipse 225" cx="6.244" cy="6.244" r="6.244" transform="translate(0)" fill="#ceb656"/>
    </g>
    <g id="Group_186" data-name="Group 186" transform="translate(521.055 389.49)">
      <circle id="Ellipse_226" data-name="Ellipse 226" cx="6.244" cy="6.244" r="6.244" transform="translate(0 38.164)" fill="#ceb656"/>
      <circle id="Ellipse_227" data-name="Ellipse 227" cx="6.244" cy="6.244" r="6.244" transform="translate(0)" fill="#ceb656"/>
      <circle id="Ellipse_228" data-name="Ellipse 228" cx="6.244" cy="6.244" r="6.244" transform="translate(0 155.184)" fill="#ceb656"/>
      <circle id="Ellipse_229" data-name="Ellipse 229" cx="6.244" cy="6.244" r="6.244" transform="translate(0 201.105)" fill="#ceb656"/>
    </g>
    <g id="Group_187" data-name="Group 187" transform="translate(497.045 438.127)">
      <circle id="Ellipse_230" data-name="Ellipse 230" cx="6.244" cy="6.244" r="6.244" fill="#ceb656"/>
      <circle id="Ellipse_231" data-name="Ellipse 231" cx="6.244" cy="6.244" r="6.244" transform="translate(0 44.512)" fill="#ceb656"/>
      <circle id="Ellipse_232" data-name="Ellipse 232" cx="6.244" cy="6.244" r="6.244" transform="translate(0 65.942)" fill="#ceb656"/>
      <circle id="Ellipse_233" data-name="Ellipse 233" cx="6.244" cy="6.244" r="6.244" transform="translate(0 106.546)" fill="#ceb656"/>
    </g>
    <g id="Group_188" data-name="Group 188" transform="translate(473.034 522.921)">
      <circle id="Ellipse_234" data-name="Ellipse 234" cx="6.244" cy="6.244" r="6.244" fill="#ceb656"/>
      <circle id="Ellipse_235" data-name="Ellipse 235" cx="6.244" cy="6.244" r="6.244" transform="translate(0 55.186)" fill="#ceb656"/>
      <circle id="Ellipse_236" data-name="Ellipse 236" cx="6.244" cy="6.244" r="6.244" transform="translate(0 100.705)" fill="#ceb656"/>
      <circle id="Ellipse_237" data-name="Ellipse 237" cx="6.244" cy="6.244" r="6.244" transform="translate(0 162.337)" fill="#ceb656"/>
    </g>
    <g id="Group_189" data-name="Group 189" transform="translate(449.024 479.215)">
      <circle id="Ellipse_238" data-name="Ellipse 238" cx="6.244" cy="6.244" r="6.244" transform="translate(0)" fill="#ceb656"/>
      <circle id="Ellipse_239" data-name="Ellipse 239" cx="6.244" cy="6.244" r="6.244" transform="translate(0 34.441)" fill="#ceb656"/>
      <circle id="Ellipse_240" data-name="Ellipse 240" cx="6.244" cy="6.244" r="6.244" transform="translate(0 62.034)" fill="#ceb656"/>
      <circle id="Ellipse_241" data-name="Ellipse 241" cx="6.244" cy="6.244" r="6.244" transform="translate(0 152.065)" fill="#ceb656"/>
      <circle id="Ellipse_242" data-name="Ellipse 242" cx="6.244" cy="6.244" r="6.244" transform="translate(0 184.492)" fill="#ceb656"/>
    </g>
    <g id="Group_190" data-name="Group 190" transform="translate(425.014 491.702)">
      <circle id="Ellipse_243" data-name="Ellipse 243" cx="6.244" cy="6.244" r="6.244" transform="translate(0)" fill="#ceb656"/>
      <circle id="Ellipse_244" data-name="Ellipse 244" cx="6.244" cy="6.244" r="6.244" transform="translate(0 41.893)" fill="#ceb656"/>
      <circle id="Ellipse_245" data-name="Ellipse 245" cx="6.244" cy="6.244" r="6.244" transform="translate(0 66.264)" fill="#ceb656"/>
    </g>
    <g id="Group_191" data-name="Group 191" transform="translate(401.004 514.865)">
      <circle id="Ellipse_246" data-name="Ellipse 246" cx="6.244" cy="6.244" r="6.244" fill="#ceb656"/>
      <circle id="Ellipse_247" data-name="Ellipse 247" cx="6.244" cy="6.244" r="6.244" transform="translate(0 54.381)" fill="#ceb656"/>
      <circle id="Ellipse_248" data-name="Ellipse 248" cx="6.244" cy="6.244" r="6.244" transform="translate(0 102.518)" fill="#ceb656"/>
    </g>
    <g id="Group_192" data-name="Group 192" transform="translate(376.994 449.004)">
      <circle id="Ellipse_249" data-name="Ellipse 249" cx="6.244" cy="6.244" r="6.244" transform="translate(0 0)" fill="#ceb656"/>
      <circle id="Ellipse_250" data-name="Ellipse 250" cx="6.244" cy="6.244" r="6.244" transform="translate(0 93.253)" fill="#ceb656"/>
      <circle id="Ellipse_251" data-name="Ellipse 251" cx="6.244" cy="6.244" r="6.244" transform="translate(0 137.362)" fill="#ceb656"/>
      <circle id="Ellipse_252" data-name="Ellipse 252" cx="6.244" cy="6.244" r="6.244" transform="translate(0 211.279)" fill="#ceb656"/>
    </g>
    <g id="Group_193" data-name="Group 193" transform="translate(352.984 492.71)">
      <circle id="Ellipse_253" data-name="Ellipse 253" cx="6.244" cy="6.244" r="6.244" transform="translate(0 0)" fill="#ceb656"/>
      <circle id="Ellipse_254" data-name="Ellipse 254" cx="6.244" cy="6.244" r="6.244" transform="translate(0 23.968)" fill="#ceb656"/>
      <circle id="Ellipse_255" data-name="Ellipse 255" cx="6.244" cy="6.244" r="6.244" transform="translate(0 132.326)" fill="#ceb656"/>
    </g>
    <g id="Group_194" data-name="Group 194" transform="translate(328.974 549.104)">
      <circle id="Ellipse_256" data-name="Ellipse 256" cx="6.244" cy="6.244" r="6.244" transform="translate(0 31.017)" fill="#ceb656"/>
      <circle id="Ellipse_257" data-name="Ellipse 257" cx="6.244" cy="6.244" r="6.244" transform="translate(0)" fill="#ceb656"/>
    </g>
  </g>
</svg>
